#!OML:ASF H:\Not Pregnant\Project 1\Capture day 1\Session 1\non-pregnant.ASF
:FULLY-SPECIFIED
:DEGREES
1030
root -4.72105 16.689 -32.1255 106.999 -83.7754 -95.1001
lowerback -3.14723 2.76165 7.03362
upperback -8.10755 3.4756 -0.474847
thorax -6.28586 1.17001 -4.48105
lowerneck 12.1071 -8.86835 -30.7358
upperneck -3.18569 -17.8686 40.2372
head 4.37281 -10.7427 19.7854
rclavicle -3.77691e-015 1.03368e-014
rhumerus -32.8719 -23.6913 -64.573
rradius 30.9388
rwrist 24.0847
rhand -14.128 1.65694
rfingers 7.12502
rthumb 12.0057 -27.9787
lclavicle -3.77691e-015 1.03368e-014
lhumerus -47.7561 4.85887 78.6947
lradius 32.2164
lwrist 32.1947
lhand -12.6403 -12.9127
lfingers 7.12502
lthumb 13.4399 16.6337
rfemur -24.5701 -6.89084 26.9771
rtibia 33.471
rfoot -23.3495 16.8459
rtoes -9.88145
lfemur -28.0629 -0.293898 -22.2546
ltibia 42.0404
lfoot -20.6421 7.48306
ltoes -7.5988
1031
root -4.72341 16.6857 -32.1622 105.728 -83.6528 -93.963
lowerback -3.26884 2.6428 6.89799
upperback -8.04546 3.30885 -0.362543
thorax -6.18139 1.10536 -4.27846
lowerneck 12.0088 -8.81325 -30.6379
upperneck -3.03228 -17.8004 40.2704
head 4.39742 -10.705 19.7998
rclavicle 1.37161e-014 2.38542e-015
rhumerus -33.0984 -23.8932 -64.7175
rradius 31.1676
rwrist 23.8787
rhand -14.1945 1.61967
rfingers 7.12502
rthumb 11.9416 -28.0197
lclavicle 1.37161e-014 2.38542e-015
lhumerus -47.5794 4.44513 79.0219
lradius 32.1496
lwrist 32.2008
lhand -13.3062 -13.1288
lfingers 7.12502
lthumb 12.798 16.4589
rfemur -24.3753 -7.46102 27.2719
rtibia 33.3721
rfoot -23.3553 17.6284
rtoes -9.11958
lfemur -27.5755 -0.0824889 -22.227
ltibia 41.6098
lfoot -20.8149 8.60101
ltoes -7.70733
1032
root -4.72543 16.6842 -32.1988 104.311 -83.565 -92.6761
lowerback -3.37998 2.50942 6.70764
upperback -7.98582 3.12388 -0.247531
thorax -6.08859 1.03418 -4.04372
lowerneck 11.9132 -8.75893 -30.5786
upperneck -2.88933 -17.7373 40.3061
head 4.42589 -10.67 19.823
rclavicle -3.66758e-014 -3.1408e-014
rhumerus -33.3597 -24.0736 -64.8663
rradius 31.4217
rwrist 23.6413
rhand -14.2847 1.57803
rfingers 7.12502
rthumb 11.8546 -28.0664
lclavicle -3.66758e-014 -3.1408e-014
lhumerus -47.398 4.10656 79.3287
lradius 32.0905
lwrist 32.2248
lhand -13.8902 -13.3346
lfingers 7.12502
lthumb 12.235 16.2875
rfemur -24.1916 -8.09575 27.5328
rtibia 33.274
rfoot -23.3381 18.4658
rtoes -8.24396
lfemur -27.1192 0.22918 -22.1458
ltibia 41.1541
lfoot -20.9705 9.24216
ltoes -7.95085
1033
root -4.72736 16.6845 -32.2358 102.696 -83.5045 -91.1828
lowerback -3.48568 2.37221 6.47286
upperback -7.93425 2.93425 -0.144347
thorax -6.00735 0.96189 -3.79773
lowerneck 11.842 -8.7087 -30.5206
upperneck -2.76644 -17.6828 40.346
head 4.44885 -10.6419 19.8487
rclavicle -2.48481e-016 -5.96354e-015
rhumerus -33.6861 -24.2592 -65.013
rradius 31.6974
rwrist 23.367
rhand -14.3791 1.54486
rfingers 7.12502
rthumb 11.7635 -28.1048
lclavicle -2.48481e-016 -5.96354e-015
lhumerus -47.2109 3.76564 79.6333
lradius 32.0463
lwrist 32.3023
lhand -14.3487 -13.5091
lfingers 7.12502
lthumb 11.7929 16.1389
rfemur -24.0316 -8.83915 27.7808
rtibia 33.1858
rfoot -23.3102 19.3676
rtoes -7.26501
lfemur -26.7119 0.675351 -22.0208
ltibia 40.6962
lfoot -21.1355 9.34163
ltoes -8.1641
1034
root -4.72933 16.6857 -32.2732 100.887 -83.4739 -89.484
lowerback -3.5865 2.23585 6.19751
upperback -7.89431 2.74602 -0.0606542
thorax -5.93976 0.890837 -3.55062
lowerneck 11.8027 -8.66613 -30.4318
upperneck -2.67328 -17.634 40.3773
head 4.45494 -10.6188 19.862
rclavicle -3.27995e-015 2.38542e-015
rhumerus -34.0867 -24.4539 -65.1542
rradius 31.9881
rwrist 23.0619
rhand -14.4946 1.51476
rfingers 7.12502
rthumb 11.6521 -28.1412
lclavicle -3.27995e-015 2.38542e-015
lhumerus -47.0248 3.40396 79.9172
lradius 32.0257
lwrist 32.4294
lhand -14.6169 -13.6311
lfingers 7.12502
lthumb 11.5342 16.0316
rfemur -23.9076 -9.68683 28.0165
rtibia 33.1221
rfoot -23.2786 20.3129
rtoes -6.18333
lfemur -26.3693 1.33189 -21.885
ltibia 40.2627
lfoot -21.3538 8.8431
ltoes -8.14251
1035
root -4.73124 16.6874 -32.3114 98.7965 -83.4576 -87.4826
lowerback -3.68585 2.09044 5.89593
upperback -7.86862 2.54603 0.0146834
thorax -5.88795 0.813768 -3.29837
lowerneck 11.7747 -8.62427 -30.3719
upperneck -2.58745 -17.5952 40.4235
head 4.46702 -10.6032 19.8897
rclavicle 1.2275e-014 7.95139e-016
rhumerus -34.5417 -24.6316 -65.2987
rradius 32.2806
rwrist 22.7317
rhand -14.6153 1.50059
rfingers 7.12502
rthumb 11.5357 -28.162
lclavicle 1.2275e-014 7.95139e-016
lhumerus -46.8419 3.0649 80.1725
lradius 32.0215
lwrist 32.5713
lhand -14.7085 -13.6979
lfingers 7.12502
lthumb 11.4459 15.9696
rfemur -23.8328 -10.6093 28.2548
rtibia 33.0951
rfoot -23.2494 21.2539
rtoes -5.0382
lfemur -26.102 2.13814 -21.7445
ltibia 39.8723
lfoot -21.6194 7.88812
ltoes -8.02802
1036
root -4.73323 16.6889 -32.3508 96.4151 -83.4572 -85.1606
lowerback -3.79286 1.95187 5.56819
upperback -7.86519 2.35399 0.0602
thorax -5.85227 0.739639 -3.06327
lowerneck 11.7905 -8.58888 -30.2883
upperneck -2.52656 -17.5718 40.483
head 4.46973 -10.6011 19.9197
rclavicle 4.96962e-017 -2.8625e-014
rhumerus -35.0914 -24.8425 -65.4274
rradius 32.5736
rwrist 22.3866
rhand -14.735 1.50578
rfingers 7.12502
rthumb 11.4204 -28.1632
lclavicle 4.96962e-017 -2.8625e-014
lhumerus -46.6553 2.70131 80.3838
lradius 32.0248
lwrist 32.6843
lhand -14.5749 -13.6797
lfingers 7.12502
lthumb 11.5748 15.9807
rfemur -23.8181 -11.5872 28.4927
rtibia 33.11
rfoot -23.2511 22.1546
rtoes -3.92614
lfemur -25.9168 3.03489 -21.623
ltibia 39.5364
lfoot -21.9183 6.60596
ltoes -7.711
1037
root -4.73525 16.6897 -32.3907 93.6887 -83.4763 -82.4612
lowerback -3.91118 1.81142 5.21347
upperback -7.88329 2.15808 0.0783912
thorax -5.83122 0.662845 -2.84194
lowerneck 11.8421 -8.55501 -30.1996
upperneck -2.48444 -17.5593 40.5597
head 4.46722 -10.6098 19.9597
rclavicle -1.67476e-014 -2.18663e-014
rhumerus -35.7144 -25.0602 -65.5522
rradius 32.8528
rwrist 22.0277
rhand -14.8513 1.52645
rfingers 7.12502
rthumb 11.3082 -28.1487
lclavicle -1.67476e-014 -2.18663e-014
lhumerus -46.4747 2.31777 80.5461
lradius 32.0451
lwrist 32.7814
lhand -14.3177 -13.5995
lfingers 7.12502
lthumb 11.8228 16.0467
rfemur -23.8572 -12.5297 28.6981
rtibia 33.1649
rfoot -23.2655 22.9556
rtoes -2.87034
lfemur -25.8083 3.936 -21.5377
ltibia 39.2566
lfoot -22.2067 5.18297
ltoes -7.36219
1038
root -4.73725 16.6899 -32.4298 90.5953 -83.4928 -79.3555
lowerback -4.05442 1.66545 4.86905
upperback -7.91421 1.953 0.0831671
thorax -5.80778 0.579815 -2.64007
lowerneck 11.8967 -8.52443 -30.1333
upperneck -2.45349 -17.5533 40.6422
head 4.46758 -10.6225 20.0065
rclavicle 7.90169e-015 1.98785e-014
rhumerus -36.3677 -25.2575 -65.6783
rradius 33.0997
rwrist 21.6498
rhand -14.9901 1.56292
rfingers 7.12502
rthumb 11.1743 -28.1195
lclavicle 7.90169e-015 1.98785e-014
lhumerus -46.2861 1.96001 80.6822
lradius 32.0816
lwrist 32.8644
lhand -13.9855 -13.4622
lfingers 7.12502
lthumb 12.1431 16.1654
rfemur -23.9517 -13.429 28.886
rtibia 33.2514
rfoot -23.3066 23.6444
rtoes -1.93207
lfemur -25.7797 4.71249 -21.4707
ltibia 39.0314
lfoot -22.4367 3.8209
ltoes -7.18859
1039
root -4.73964 16.6899 -32.4684 87.1783 -83.5049 -75.9027
lowerback -4.21954 1.5241 4.52173
upperback -7.95048 1.75276 0.0651201
thorax -5.77464 0.498568 -2.46036
lowerneck 11.9762 -8.50213 -30.0519
upperneck -2.45238 -17.5565 40.7294
head 4.45803 -10.6427 20.0514
rclavicle -9.54166e-015 9.54166e-015
rhumerus -37.0672 -25.4813 -65.795
rradius 33.3113
rwrist 21.2655
rhand -15.1486 1.60852
rfingers 7.12502
rthumb 11.0215 -28.0821
lclavicle -9.54166e-015 9.54166e-015
lhumerus -46.0822 1.58201 80.8028
lradius 32.1418
lwrist 32.9621
lhand -13.6047 -13.2793
lfingers 7.12502
lthumb 12.5102 16.3262
rfemur -24.0704 -14.2491 29.0455
rtibia 33.3557
rfoot -23.3824 24.1803
rtoes -1.19689
lfemur -25.8 5.31312 -21.423
ltibia 38.8548
lfoot -22.614 2.62062
ltoes -7.21755
